<svg width="138" height="138" viewBox="0 0 138 138" fill="none" xmlns="http://www.w3.org/2000/svg">
<g clip-path="url(#clip0_11_757)">
<rect width="138" height="138" rx="20" fill="#7770FF"/>
<path d="M122.812 64.1562H120.625V54.7812C120.625 53.538 120.164 52.3458 119.344 51.4667C118.523 50.5876 117.41 50.0938 116.25 50.0938H111.875V47.75C111.875 46.5068 111.414 45.3145 110.594 44.4354C109.773 43.5564 108.66 43.0625 107.5 43.0625H100.938C99.7772 43.0625 98.6644 43.5564 97.8439 44.4354C97.0234 45.3145 96.5625 46.5068 96.5625 47.75V64.1562H83.4375V47.75C83.4375 46.5068 82.9766 45.3145 82.1561 44.4354C81.3356 43.5564 80.2228 43.0625 79.0625 43.0625H72.5C71.3397 43.0625 70.2269 43.5564 69.4064 44.4354C68.5859 45.3145 68.125 46.5068 68.125 47.75V50.0938H63.75C62.5897 50.0938 61.4769 50.5876 60.6564 51.4667C59.8359 52.3458 59.375 53.538 59.375 54.7812V64.1562H57.1875C56.6073 64.1562 56.0509 64.4032 55.6407 64.8427C55.2305 65.2823 55 65.8784 55 66.5C55 67.1216 55.2305 67.7177 55.6407 68.1573C56.0509 68.5968 56.6073 68.8438 57.1875 68.8438H59.375V78.2188C59.375 79.462 59.8359 80.6542 60.6564 81.5333C61.4769 82.4124 62.5897 82.9062 63.75 82.9062H68.125V85.25C68.125 86.4932 68.5859 87.6855 69.4064 88.5646C70.2269 89.4436 71.3397 89.9375 72.5 89.9375H79.0625C80.2228 89.9375 81.3356 89.4436 82.1561 88.5646C82.9766 87.6855 83.4375 86.4932 83.4375 85.25V68.8438H96.5625V85.25C96.5625 86.4932 97.0234 87.6855 97.8439 88.5646C98.6644 89.4436 99.7772 89.9375 100.938 89.9375H107.5C108.66 89.9375 109.773 89.4436 110.594 88.5646C111.414 87.6855 111.875 86.4932 111.875 85.25V82.9062H116.25C117.41 82.9062 118.523 82.4124 119.344 81.5333C120.164 80.6542 120.625 79.462 120.625 78.2188V68.8438H122.812C123.393 68.8438 123.949 68.5968 124.359 68.1573C124.77 67.7177 125 67.1216 125 66.5C125 65.8784 124.77 65.2823 124.359 64.8427C123.949 64.4032 123.393 64.1562 122.812 64.1562ZM63.75 78.2188V54.7812H68.125V78.2188H63.75ZM79.0625 85.25H72.5V47.75H79.0625V85.25ZM107.5 85.25H100.938V47.75H107.5V80.5098C107.5 80.5273 107.5 80.5449 107.5 80.5625C107.5 80.5801 107.5 80.5977 107.5 80.6152V85.25ZM116.25 78.2188H111.875V54.7812H116.25V78.2188Z" fill="white"/>
<path d="M37.2008 112.282C35.442 116.501 32.7373 119.651 29.0869 121.733C25.5048 123.822 21.3693 124.754 16.6801 124.528L15.142 124.341C10.9721 123.837 7.20323 122.597 3.83548 120.621C2.75465 119.809 1.66736 119.336 0.573601 119.204C-0.520156 119.072 -1.79128 119.259 -3.23977 119.766C-6.98146 120.881 -10.9715 121.183 -15.2098 120.67L-16.6453 120.496C-21.2532 119.598 -25.0815 117.703 -28.1304 114.811C-31.1109 111.928 -32.9522 108.228 -33.6542 103.711C-34.353 99.7398 -34.3136 95.6876 -33.5362 91.5542C-32.7587 87.4208 -31.292 83.6094 -29.1359 80.1201C-28.6884 79.2878 -28.1774 79.0769 -27.6028 79.4874L-24.9439 80.7295C-22.4519 81.9173 -19.8729 82.6725 -17.2069 82.995C-13.5838 83.4333 -9.98363 82.9142 -6.40638 81.4378C-3.47688 80.1557 -1.37103 78.2286 -0.0888188 75.6563C1.26175 73.0923 1.43634 70.2156 0.434952 67.0261C0.32262 66.808 0.0955553 66.6782 -0.246245 66.6369C-0.588046 66.5955 -0.915989 66.7263 -1.23007 67.0293C-1.53603 67.265 -1.597 67.769 -1.41298 68.5413C-0.426002 73.57 -2.45351 77.143 -7.49552 79.2605C-10.8677 80.7617 -14.2628 81.3056 -17.6808 80.8921C-20.8937 80.5035 -23.8984 79.2536 -26.6949 77.1425C-28.5391 75.7603 -29.7095 74.255 -30.2062 72.6267C-30.6263 70.9395 -30.511 68.8397 -29.8603 66.3274C-29.081 63.8988 -27.7369 61.675 -25.828 59.6558C-23.8508 57.6449 -21.3575 56.2419 -18.3482 55.4468C-19.3396 53.895 -20.0169 52.0402 -20.3801 49.8826C-20.675 47.7332 -20.7567 45.5414 -20.6251 43.3072C-20.4936 41.0731 -20.1691 38.9645 -19.6518 36.9815C-19.058 34.9396 -18.338 33.288 -17.4918 32.0267C-20.088 30.5535 -21.8388 28.3985 -22.7441 25.5616C-23.5811 22.733 -23.4407 19.8521 -22.3229 16.919C-21.2945 14.7251 -19.8446 13.0595 -17.973 11.9223C-16.1014 10.785 -13.8766 10.1677 -11.2985 10.0705C-10.9485 10.0446 -10.6027 10.0524 -10.2609 10.0937C-9.91908 10.135 -9.57728 10.1764 -9.23548 10.2177C-6.50108 10.5485 -4.23208 11.573 -2.42849 13.2913C-0.556532 15.0178 0.532612 17.1951 0.838942 19.8231C2.90267 19.3909 6.12206 19.4394 10.4971 19.9687L12.3428 20.192C14.9324 20.5734 17.172 20.9807 19.0617 21.4138C21.0278 21.788 22.5757 22.1798 23.7053 22.5892C24.6295 20.11 26.1722 18.2511 28.3335 17.0125C30.5631 15.7821 33.0451 15.3323 35.7795 15.6631C36.1213 15.7045 36.4631 15.7458 36.8049 15.7872C37.1467 15.8285 37.4845 15.9035 37.8181 16.012C40.2987 16.7212 42.3122 17.8511 43.8586 19.4019C45.405 20.9527 46.416 22.9159 46.8916 25.2917C47.2777 28.4068 46.6588 31.2297 45.0348 33.7606C43.4791 36.2998 41.265 37.9753 38.3924 38.7869C38.9134 40.2136 39.2188 41.9893 39.3086 44.1139C39.4065 46.1712 39.253 48.3005 38.848 50.5016C38.5114 52.7109 37.9095 54.82 37.0422 56.8288C36.175 58.8377 35.1091 60.4815 33.8447 61.7604C36.5776 63.2502 38.6302 65.2031 40.0026 67.6192C41.4433 70.0436 42.2526 72.5279 42.4303 75.0722C42.4632 77.6672 42.0403 79.7298 41.1616 81.2599C40.3594 82.7311 38.898 83.918 36.7773 84.8206C33.5581 86.204 30.3421 86.7014 27.1292 86.3127C23.7112 85.8992 20.5437 84.5615 17.6268 82.2995C13.1667 79.0326 12.0155 75.075 14.1731 70.4267C14.5359 69.7206 14.5969 69.2166 14.356 68.9147C14.1916 68.5539 13.9384 68.3528 13.5966 68.3114C13.1865 68.2618 12.935 68.3337 12.8423 68.527C11.049 71.3102 10.5025 74.1078 11.2028 76.9199C11.903 79.732 13.5187 82.1435 16.0499 84.1543C19.1719 86.4411 22.5444 87.8036 26.1675 88.2419C28.8335 88.5644 31.5182 88.446 34.2216 87.8866C34.5715 87.8608 34.9597 87.8054 35.3861 87.7207C35.8207 87.5687 36.3578 87.4291 36.9974 87.3019C37.7135 87.1158 38.1937 87.4466 38.4379 88.2944C39.6998 92.1972 40.2155 96.2483 39.9849 100.448C39.7543 104.647 38.8263 108.592 37.2008 112.282ZM-3.23981 100.844C-3.47925 99.3835 -4.0507 98.087 -4.95417 96.955C-5.78927 95.8312 -6.87989 94.8128 -8.22603 93.9C-9.13429 93.381 -10.093 92.9923 -11.1021 92.7338C-12.0348 92.4165 -12.9796 92.1999 -13.9367 92.0841C-16.7394 91.7451 -19.4705 91.9602 -22.1299 92.7294C-22.7418 93.2009 -23.0502 93.7432 -23.055 94.3562C-22.8026 95.1368 -22.2418 95.3751 -21.3727 95.0711C-19.0031 94.4032 -16.6903 94.2057 -14.4344 94.4786C-12.5203 94.7101 -10.8821 95.2151 -9.51969 95.9936C-7.43785 97.1318 -6.15914 98.8888 -5.68358 101.265C-5.10713 103.38 -5.259 105.782 -6.13918 108.471C-6.38971 109.395 -6.1813 109.966 -5.51396 110.183C-5.18029 110.292 -4.8686 110.295 -4.5789 110.194C-4.22085 110.101 -3.94094 109.794 -3.73919 109.273C-2.92257 105.962 -2.75611 103.153 -3.23981 100.844ZM8.32893 111.858C9.02879 111.806 9.36726 111.302 9.34435 110.344C9.13077 107.523 9.55607 105.154 10.6203 103.237C11.6486 101.043 13.3094 99.6416 15.6026 99.0326C17.1113 98.6014 18.8227 98.5016 20.7368 98.7331C22.9927 99.006 25.1916 99.7493 27.3337 100.963C28.1053 101.465 28.7066 101.368 29.1379 100.67C29.2794 100.073 29.1092 99.4732 28.6274 98.8694C26.2281 97.4883 23.6271 96.6281 20.8244 96.2891C19.8673 96.1733 18.8639 96.1542 17.8141 96.2318C16.8408 96.2504 15.8513 96.4034 14.8455 96.6909C13.3205 97.2564 11.9843 97.9812 10.837 98.8652C9.758 99.7574 8.92808 100.884 8.34721 102.246C7.32698 104.373 6.81872 107.141 6.82243 110.55C6.89411 111.105 7.05854 111.465 7.31572 111.633C7.64127 111.809 7.979 111.884 8.32893 111.858ZM-10.2542 42.7208C-10.0184 40.772 -10.0024 39.2057 -10.206 38.0219C-10.4014 36.7709 -11.1828 36.0628 -12.55 35.8974C-13.8488 35.7403 -14.9254 36.326 -15.7797 37.6545C-16.6259 38.9158 -17.1547 40.4201 -17.366 42.1673C-17.5774 43.9146 -17.4103 45.4007 -16.8649 46.6258C-16.3195 47.851 -15.4316 48.5379 -14.2011 48.6868C-12.9023 48.8439 -11.9787 48.3761 -11.4303 47.2833C-10.882 46.1905 -10.4899 44.6696 -10.2542 42.7208ZM-9.32742 53.9811C-9.22987 53.1747 -9.42202 52.4696 -9.90387 51.8658C-10.3174 51.2703 -10.9001 50.9271 -11.652 50.8361C-12.404 50.7452 -13.1242 50.9649 -13.8126 51.4953C-14.4326 52.0339 -14.7833 52.6393 -14.8646 53.3113C-14.954 54.0505 -14.7578 54.722 -14.2759 55.3257C-13.7257 55.9378 -13.0746 56.2893 -12.3227 56.3802C-11.6391 56.4629 -10.9913 56.2685 -10.3794 55.7971C-9.76751 55.3256 -9.41684 54.7203 -9.32742 53.9811ZM2.78501 40.7184C2.89069 39.8448 2.70261 39.1061 2.22077 38.5024C1.73892 37.8986 1.08783 37.5471 0.267515 37.4479C-0.484446 37.3569 -1.16638 37.5472 -1.77829 38.0186C-2.3902 38.4901 -2.749 39.1626 -2.85468 40.0362C-2.95223 40.8426 -2.76008 41.5477 -2.27823 42.1515C-1.78826 42.688 -1.1673 43.0018 -0.415337 43.0928C0.404983 43.192 1.11704 43.0395 1.72082 42.6352C2.33273 42.1638 2.68746 41.5249 2.78501 40.7184ZM13.4791 46.9214C13.6092 45.8461 13.3047 44.9229 12.5657 44.1517C11.8348 43.3132 10.8199 42.8154 9.52106 42.6583C8.35894 42.5177 7.28883 42.7633 6.31073 43.395C5.34076 43.9595 4.79074 44.7794 4.66067 45.8546C4.54686 46.7954 4.88959 47.6892 5.68884 48.5359C6.4881 49.3826 7.46879 49.8763 8.63091 50.0169C9.92975 50.174 11.034 49.9325 11.9438 49.2926C12.8535 48.6526 13.3653 47.8622 13.4791 46.9214ZM16.833 42.4178C16.7354 43.2242 16.9276 43.9293 17.4094 44.5331C17.8994 45.0696 18.5545 45.3875 19.3749 45.4868C20.1268 45.5777 20.8047 45.4211 21.4085 45.0168C22.0204 44.5454 22.3751 43.9064 22.4727 43.1C22.5784 42.2264 22.3903 41.4877 21.9084 40.8839C21.4266 40.2802 20.8097 39.9328 20.0577 39.8419C19.2374 39.7426 18.5213 39.9287 17.9094 40.4002C17.2975 40.8716 16.9387 41.5442 16.833 42.4178Z" fill="white"/>
<path d="M55.9609 107.688H60.4609C61.2682 107.688 61.9531 107.81 62.5156 108.055C63.0781 108.294 63.5 108.633 63.7812 109.07C64.0677 109.503 64.2109 110.01 64.2109 110.594C64.2109 111.021 64.1224 111.401 63.9453 111.734C63.7734 112.068 63.5339 112.344 63.2266 112.562C62.9245 112.776 62.5729 112.927 62.1719 113.016V113.125C62.6042 113.146 63.0104 113.271 63.3906 113.5C63.7708 113.729 64.0755 114.049 64.3047 114.461C64.5339 114.867 64.6484 115.341 64.6484 115.883C64.6484 116.487 64.5 117.023 64.2031 117.492C63.9062 117.961 63.4635 118.331 62.875 118.602C62.2917 118.867 61.5859 119 60.7578 119H55.9609V107.688ZM60.2812 117.07C60.724 117.07 61.0885 117.013 61.375 116.898C61.6667 116.779 61.8802 116.615 62.0156 116.406C62.151 116.193 62.2188 115.94 62.2188 115.648C62.2188 115.336 62.1432 115.055 61.9922 114.805C61.8411 114.555 61.6224 114.365 61.3359 114.234C61.0547 114.099 60.724 114.031 60.3438 114.031H58.3047V117.07H60.2812ZM60.1094 112.43C60.4375 112.43 60.7318 112.37 60.9922 112.25C61.2578 112.13 61.4635 111.961 61.6094 111.742C61.7604 111.523 61.8359 111.266 61.8359 110.969C61.8359 110.688 61.7708 110.445 61.6406 110.242C61.5104 110.034 61.3177 109.875 61.0625 109.766C60.8125 109.651 60.5104 109.594 60.1562 109.594H58.3047V112.43H60.1094ZM65.5156 119L69.4219 107.688H72.4375L76.3516 119H73.8281L70.9766 110.242H70.8828L68.0234 119H65.5156ZM73.9375 114.555V116.391H67.8984V114.555H73.9375ZM87.0625 119H85.0312L80.0625 111.812H79.9766V119H77.6328V107.688H79.6953L84.625 114.867H84.7266V107.688H87.0625V119ZM90.0391 119V116.984H92.875C93.6042 116.984 94.2109 116.854 94.6953 116.594C95.1797 116.333 95.5443 115.935 95.7891 115.398C96.0339 114.857 96.1562 114.169 96.1562 113.336C96.1562 112.503 96.0339 111.818 95.7891 111.281C95.5495 110.74 95.1875 110.341 94.7031 110.086C94.2188 109.831 93.6146 109.703 92.8906 109.703H89.9844V107.688H93.0078C94.1432 107.688 95.1224 107.914 95.9453 108.367C96.7734 108.815 97.4062 109.464 97.8438 110.312C98.2865 111.161 98.5078 112.169 98.5078 113.336C98.5078 114.508 98.2865 115.518 97.8438 116.367C97.401 117.216 96.763 117.867 95.9297 118.32C95.1016 118.773 94.1172 119 92.9766 119H90.0391ZM91.3359 119H88.9922V107.688H91.3359V119ZM98.9531 119L102.859 107.688H105.875L109.789 119H107.266L104.414 110.242H104.32L101.461 119H98.9531ZM107.375 114.555V116.391H101.336V114.555H107.375ZM111.07 107.688H115.57C116.378 107.688 117.062 107.81 117.625 108.055C118.188 108.294 118.609 108.633 118.891 109.07C119.177 109.503 119.32 110.01 119.32 110.594C119.32 111.021 119.232 111.401 119.055 111.734C118.883 112.068 118.643 112.344 118.336 112.562C118.034 112.776 117.682 112.927 117.281 113.016V113.125C117.714 113.146 118.12 113.271 118.5 113.5C118.88 113.729 119.185 114.049 119.414 114.461C119.643 114.867 119.758 115.341 119.758 115.883C119.758 116.487 119.609 117.023 119.312 117.492C119.016 117.961 118.573 118.331 117.984 118.602C117.401 118.867 116.695 119 115.867 119H111.07V107.688ZM115.391 117.07C115.833 117.07 116.198 117.013 116.484 116.898C116.776 116.779 116.99 116.615 117.125 116.406C117.26 116.193 117.328 115.94 117.328 115.648C117.328 115.336 117.253 115.055 117.102 114.805C116.951 114.555 116.732 114.365 116.445 114.234C116.164 114.099 115.833 114.031 115.453 114.031H113.414V117.07H115.391ZM115.219 112.43C115.547 112.43 115.841 112.37 116.102 112.25C116.367 112.13 116.573 111.961 116.719 111.742C116.87 111.523 116.945 111.266 116.945 110.969C116.945 110.688 116.88 110.445 116.75 110.242C116.62 110.034 116.427 109.875 116.172 109.766C115.922 109.651 115.62 109.594 115.266 109.594H113.414V112.43H115.219ZM123.602 119H121.258V107.688H123.602V119Z" fill="#DAD8FF"/>
</g>
<defs>
<clipPath id="clip0_11_757">
<rect width="138" height="138" fill="white"/>
</clipPath>
</defs>
</svg>
